<svg width="37" height="24" viewBox="0 0 37 24" fill="none" xmlns="http://www.w3.org/2000/svg">
<path fill-rule="evenodd" clip-rule="evenodd" d="M33.1934 6.04252L34.1442 9.84554C35.5973 10.0668 36.7143 11.3246 36.7143 12.8385V18.9703C36.7143 19.2878 36.4568 19.5452 36.1394 19.5452H34.2604L34.2609 19.5624L34.2609 19.5627C34.2612 19.5696 34.2614 19.5765 34.2614 19.5834C34.2614 21.591 32.6281 23.2242 30.6207 23.2242C28.6132 23.2242 26.9799 21.591 26.9799 19.5834C26.9799 19.5764 26.9802 19.5695 26.9805 19.5625L26.9809 19.5452H14.0255L14.026 19.5625C14.0263 19.5694 14.0265 19.5764 14.0265 19.5834C14.0265 21.591 12.3932 23.2242 10.3858 23.2242C8.37833 23.2242 6.74504 21.591 6.74504 19.5834C6.74504 19.5764 6.7453 19.5695 6.74555 19.5625L6.74604 19.5452H3.64081C2.98569 19.5452 2.45276 19.0122 2.45276 18.3571V17.0924H0.574881C0.257359 17.0924 0 16.835 0 16.5175C0 16.2 0.257431 15.9426 0.574881 15.9426H6.0935C6.41103 15.9426 6.66839 16.2 6.66839 16.5175C6.66839 16.835 6.41095 17.0924 6.0935 17.0924H3.60245V18.3571C3.60245 18.3783 3.61959 18.3954 3.64074 18.3954H6.9451C7.43881 16.9696 8.79423 15.9426 10.3858 15.9426C11.9773 15.9426 13.3327 16.9696 13.8265 18.3954H25.7535V14.0649C25.7535 13.7474 26.0109 13.49 26.3283 13.49C26.6459 13.49 26.9032 13.7474 26.9032 14.0649V18.3955H27.18C27.6737 16.9698 29.0291 15.9428 30.6207 15.9428C32.2122 15.9428 33.5676 16.9698 34.0614 18.3955H35.5645V15.8662H34.913C33.9197 15.8662 33.1117 15.0582 33.1117 14.065V12.8386C33.1117 12.5211 33.3692 12.2637 33.6866 12.2637H35.4742C35.2308 11.509 34.5222 10.9613 33.6878 10.9607L33.6862 10.9608L33.6847 10.9607H26.9034V11.6123C26.9034 11.9299 26.6459 12.1872 26.3285 12.1872C26.011 12.1872 25.7536 11.9298 25.7536 11.6123V1.18805C25.7536 1.1669 25.7365 1.14976 25.7153 1.14976H3.64074C3.61959 1.14976 3.60245 1.1669 3.60245 1.18805V11.6122C3.60245 11.9297 3.34502 12.1871 3.02757 12.1871C2.71005 12.1871 2.45269 11.9296 2.45269 11.6122V1.18805C2.45269 0.532932 2.98562 0 3.64074 0H25.7154C26.3705 0 26.9034 0.532932 26.9034 1.18805V2.45283H31.234C32.5653 2.45283 33.6484 3.53591 33.6484 4.86723V5.4804C33.6484 5.75669 33.4534 5.98731 33.1934 6.04252ZM31.234 3.60252H26.9034V4.90552H32.4987V4.86723C32.4987 4.16987 31.9314 3.60252 31.234 3.60252ZM26.9034 6.05521V9.81097H32.9505L32.0115 6.05521H26.9034ZM7.89473 19.5836C7.89473 20.9572 9.01222 22.0746 10.3858 22.0746C11.7593 22.0746 12.8768 20.9572 12.8768 19.5836C12.8768 18.21 11.7593 17.0925 10.3858 17.0925C9.01222 17.0925 7.89473 18.21 7.89473 19.5836ZM28.1298 19.5836C28.1298 20.9572 29.2473 22.0746 30.6208 22.0746C31.9944 22.0746 33.1119 20.9572 33.1119 19.5836C33.1119 18.21 31.9944 17.0925 30.6208 17.0925C29.2473 17.0925 28.1298 18.21 28.1298 19.5836ZM34.9131 14.7164H35.5646V13.4134H34.2616V14.0649C34.2616 14.4241 34.5539 14.7164 34.9131 14.7164ZM9.19769 19.5836C9.19769 18.9284 9.73063 18.3955 10.3857 18.3955C11.0409 18.3955 11.5738 18.9284 11.5738 19.5836C11.5738 20.2387 11.0409 20.7716 10.3857 20.7716C9.73063 20.7716 9.19769 20.2387 9.19769 19.5836ZM30.6209 18.3955C29.9657 18.3955 29.4328 18.9284 29.4328 19.5836C29.4328 20.2387 29.9657 20.7716 30.6209 20.7716C31.276 20.7716 31.8089 20.2387 31.8089 19.5836C31.8089 18.9284 31.276 18.3955 30.6209 18.3955ZM15.2913 15.9429H23.8758C24.1933 15.9429 24.4507 16.2002 24.4507 16.5178C24.4507 16.8353 24.1933 17.0926 23.8758 17.0926H15.2913C14.9737 17.0926 14.7164 16.8353 14.7164 16.5178C14.7164 16.2002 14.9738 15.9429 15.2913 15.9429ZM9.15941 13.4902H1.8012C1.48375 13.4902 1.22632 13.7476 1.22632 14.0651C1.22632 14.3826 1.48368 14.64 1.8012 14.64H9.15941C9.47686 14.64 9.73429 14.3826 9.73429 14.0651C9.73429 13.7476 9.47686 13.4902 9.15941 13.4902ZM19.177 5.68695C19.4015 5.46243 19.7655 5.46243 19.99 5.68688C20.2144 5.9114 20.2144 6.27531 19.9899 6.4999L14.4713 12.0185C14.3591 12.1308 14.2119 12.1869 14.0648 12.1869C13.9178 12.1869 13.7706 12.1308 13.6584 12.0185L10.5925 8.95259C10.3679 8.72808 10.3679 8.36416 10.5925 8.13964C10.8169 7.91512 11.1809 7.91512 11.4054 8.13964L14.0648 10.7991L19.177 5.68695Z" fill="#272931"/>
</svg>
