<svg width="22" height="21" viewBox="0 0 22 21" fill="none" xmlns="http://www.w3.org/2000/svg">
<path d="M7.1186 8.71514C7.59669 8.71514 7.9847 8.32713 7.9847 7.84904V4.47125C7.9847 2.9612 9.21326 1.7322 10.7237 1.7322C12.2338 1.7322 13.4628 2.9612 13.4628 4.47125V7.84904C13.4628 8.32713 13.8508 8.71514 14.3289 8.71514C14.807 8.71514 15.195 8.32713 15.195 7.84904V4.47125C15.195 2.00589 13.1891 0 10.7237 0C8.25882 0 6.25293 2.00589 6.25293 4.47125V7.84904C6.2525 8.32713 6.64051 8.71514 7.1186 8.71514Z" fill="#272931"/>
<path d="M20.6589 6.76904H16.0612V7.84907C16.0612 8.80438 15.2843 9.58127 14.329 9.58127C13.3741 9.58127 12.5968 8.80438 12.5968 7.84907V6.76904H8.85136V7.84907C8.85136 8.80438 8.07447 9.58127 7.11916 9.58127C6.16385 9.58127 5.38696 8.80438 5.38696 7.84907V6.76904H0.738598C0.499555 6.76904 0.351884 6.95742 0.408614 7.18953L3.43867 19.5306C3.62185 20.2244 4.35154 20.7865 5.0691 20.7865H16.3284C17.0464 20.7865 17.7757 20.2239 17.9597 19.5306L20.9893 7.18953C21.0456 6.95699 20.8984 6.76904 20.6589 6.76904Z" fill="#272931"/>
</svg>
