<svg width="25" height="25" viewBox="0 0 25 25" fill="none" xmlns="http://www.w3.org/2000/svg">
<path d="M14.4954 12.1667C14.4954 13.4528 13.4528 14.4954 12.1667 14.4954C10.8805 14.4954 9.83789 13.4528 9.83789 12.1667C9.83789 10.8805 10.8805 9.83789 12.1667 9.83789C13.4528 9.83789 14.4954 10.8805 14.4954 12.1667Z" fill="white"/>
<path d="M17.6128 8.04637C17.5008 7.74302 17.3222 7.46844 17.0902 7.24307C16.8648 7.01101 16.5904 6.83241 16.2869 6.72047C16.0407 6.62486 15.6709 6.51106 14.9898 6.48005C14.2529 6.44645 14.032 6.43921 12.1666 6.43921C10.301 6.43921 10.0801 6.44626 9.34344 6.47987C8.66229 6.51105 8.29229 6.62486 8.04631 6.72047C7.74277 6.83241 7.4682 7.01101 7.24301 7.24307C7.01095 7.46844 6.83235 7.74283 6.72022 8.04637C6.62461 8.29254 6.51081 8.66254 6.47981 9.34368C6.44621 10.0803 6.43896 10.3013 6.43896 12.1668C6.43896 14.0322 6.44621 14.2532 6.47981 14.99C6.51081 15.6711 6.62461 16.041 6.72022 16.2871C6.83235 16.5907 7.01076 16.865 7.24282 17.0904C7.4682 17.3225 7.74259 17.5011 8.04612 17.613C8.29229 17.7088 8.66229 17.8226 9.34344 17.8536C10.0801 17.8872 10.3008 17.8943 12.1664 17.8943C14.0322 17.8943 14.2531 17.8872 14.9896 17.8536C15.6707 17.8226 16.0407 17.7088 16.2869 17.613C16.8962 17.378 17.3778 16.8964 17.6128 16.2871C17.7084 16.041 17.8222 15.6711 17.8534 14.99C17.887 14.2532 17.894 14.0322 17.894 12.1668C17.894 10.3013 17.887 10.0803 17.8534 9.34368C17.8224 8.66254 17.7086 8.29254 17.6128 8.04637ZM12.1666 15.7541C10.1852 15.7541 8.57894 14.1481 8.57894 12.1667C8.57894 10.1852 10.1852 8.57918 12.1666 8.57918C14.1478 8.57918 15.7541 10.1852 15.7541 12.1667C15.7541 14.1481 14.1478 15.7541 12.1666 15.7541ZM15.8959 9.27573C15.4329 9.27573 15.0575 8.90035 15.0575 8.43734C15.0575 7.97434 15.4329 7.59896 15.8959 7.59896C16.3589 7.59896 16.7343 7.97434 16.7343 8.43734C16.7341 8.90035 16.3589 9.27573 15.8959 9.27573Z" fill="white"/>
<path d="M12.1667 0C5.44823 0 0 5.44823 0 12.1667C0 18.8851 5.44823 24.3333 12.1667 24.3333C18.8851 24.3333 24.3333 18.8851 24.3333 12.1667C24.3333 5.44823 18.8851 0 12.1667 0ZM19.1109 15.047C19.0771 15.7907 18.9588 16.2985 18.7862 16.7429C18.4232 17.6814 17.6814 18.4232 16.7429 18.7862C16.2986 18.9588 15.7907 19.0769 15.0472 19.1109C14.3022 19.1448 14.0642 19.153 12.1669 19.153C10.2693 19.153 10.0315 19.1448 9.28633 19.1109C8.54281 19.0769 8.03487 18.9588 7.59061 18.7862C7.12427 18.6107 6.7021 18.3358 6.35308 17.9803C5.99775 17.6314 5.7228 17.2091 5.54737 16.7429C5.37471 16.2986 5.25645 15.7907 5.22267 15.0472C5.18832 14.302 5.18034 14.064 5.18034 12.1667C5.18034 10.2693 5.18832 10.0313 5.22248 9.28633C5.25627 8.54262 5.37434 8.03487 5.54699 7.59043C5.72243 7.12427 5.99756 6.70191 6.35308 6.35308C6.70191 5.99756 7.12427 5.72262 7.59043 5.54718C8.03487 5.37453 8.54262 5.25645 9.28633 5.22248C10.0313 5.18851 10.2693 5.18034 12.1667 5.18034C14.064 5.18034 14.302 5.18851 15.047 5.22267C15.7907 5.25645 16.2985 5.37453 16.7429 5.54699C17.2091 5.72243 17.6314 5.99756 17.9804 6.35308C18.3358 6.7021 18.6109 7.12427 18.7862 7.59043C18.959 8.03487 19.0771 8.54262 19.111 9.28633C19.145 10.0313 19.153 10.2693 19.153 12.1667C19.153 14.064 19.145 14.302 19.1109 15.047Z" fill="white"/>
</svg>
