<svg width="37" height="34" viewBox="0 0 37 34" fill="none" xmlns="http://www.w3.org/2000/svg">
<path fill-rule="evenodd" clip-rule="evenodd" d="M1.99129 0H34.723C35.8211 0 36.7143 0.893265 36.7143 1.99129V23.7159C36.7143 24.8139 35.8211 25.7072 34.723 25.7072H23.1932C23.01 26.1856 22.7577 26.6299 22.4487 27.0282V28.7486C22.4487 29.0486 22.2053 29.2917 21.9056 29.2917C21.6056 29.2917 21.3624 29.0486 21.3624 28.7486V28.073C20.5143 28.6797 19.477 29.0383 18.3572 29.0383C17.2373 29.0383 16.2001 28.6797 15.3519 28.073V32.0318L18.1518 30.8889C18.2835 30.8354 18.4308 30.8354 18.5625 30.8889L21.3624 32.0318V31.2867C21.3624 30.9867 21.6056 30.7436 21.9056 30.7436C22.2053 30.7436 22.4487 30.9867 22.4487 31.2867V32.8402C22.4487 33.0211 22.3585 33.19 22.2084 33.2909C22.1176 33.3519 22.0117 33.3833 21.9053 33.3833C21.8361 33.3833 21.7664 33.3698 21.7003 33.343L18.3572 31.9783L15.0141 33.343C14.8466 33.4113 14.6561 33.3917 14.506 33.2909C14.3558 33.19 14.2656 33.0211 14.2656 32.8402V27.0282C13.9567 26.6299 13.7043 26.1856 13.5211 25.7072H1.99129C0.893265 25.7072 0 24.8139 0 23.7159V11.7267C0 11.4267 0.243134 11.1836 0.54313 11.1836C0.843126 11.1836 1.08626 11.4267 1.08626 11.7267V23.7159C1.08626 24.2151 1.49214 24.6212 1.99129 24.6212H13.2357C13.199 24.3728 13.1796 24.119 13.1796 23.8607C13.1796 23.6025 13.199 23.3487 13.2357 23.1002H6.19151C5.89151 23.1002 5.64838 22.8571 5.64838 22.5571C5.64838 21.1795 4.52767 20.0588 3.1501 20.0588C2.8501 20.0588 2.60697 19.8157 2.60697 19.5157V6.19151C2.60697 5.89151 2.8501 5.64838 3.1501 5.64838C4.52767 5.64838 5.64838 4.52767 5.64838 3.1501C5.64838 2.8501 5.89151 2.60697 6.19151 2.60697H30.5228C30.8228 2.60697 31.066 2.8501 31.066 3.1501C31.066 4.52767 32.1867 5.64838 33.5642 5.64838C33.8642 5.64838 34.1074 5.89151 34.1074 6.19151V7.74387C34.1074 8.04387 33.8642 8.287 33.5642 8.287C33.2645 8.287 33.0211 8.04387 33.0211 7.74387V6.69346C31.4786 6.45789 30.2564 5.23578 30.0209 3.69323H6.69346C6.45817 5.23578 5.23578 6.45789 3.69323 6.69346V19.0137C5.23578 19.2493 6.45817 20.4714 6.69346 22.014H13.5211C14.2665 20.0686 16.1527 18.6829 18.3572 18.6829C20.5616 18.6829 22.4479 20.0686 23.1932 22.014H30.0209C30.2562 20.4714 31.4786 19.2493 33.0211 19.0137V10.2769C33.0211 9.97689 33.2642 9.73376 33.5642 9.73376C33.8642 9.73376 34.1074 9.97689 34.1074 10.2769V19.5157C34.1074 19.8157 33.8642 20.0588 33.5642 20.0588C32.1867 20.0588 31.066 21.1795 31.066 22.5571C31.066 22.8571 30.8228 23.1002 30.5228 23.1002H23.4787C23.5154 23.3484 23.5347 23.6022 23.5347 23.8605C23.5347 24.119 23.5154 24.3728 23.4787 24.6209H34.723C35.2219 24.6209 35.6281 24.2151 35.6281 23.7159V1.99129C35.6281 1.49242 35.2222 1.08626 34.723 1.08626H1.99129C1.49242 1.08626 1.08626 1.49242 1.08626 1.99129V9.20127C1.08626 9.50099 0.843126 9.7444 0.54313 9.7444C0.243134 9.7444 0 9.50099 0 9.20127V1.99129C0 0.893265 0.893265 0 1.99129 0ZM14.2656 23.8607C14.2656 26.1167 16.1012 27.952 18.3572 27.952C20.6132 27.952 22.4487 26.1167 22.4487 23.8607C22.4487 21.6047 20.6132 19.7692 18.3572 19.7692C16.1012 19.7692 14.2656 21.6047 14.2656 23.8607ZM23.6797 6.62591C23.6797 6.92591 23.4366 7.16904 23.1366 7.16904H13.5776C13.2776 7.16904 13.0345 6.92591 13.0345 6.62591C13.0345 6.32592 13.2776 6.08278 13.5776 6.08278H23.1366C23.4366 6.08278 23.6797 6.32592 23.6797 6.62591ZM26.7573 8.97947H9.95698C9.65699 8.97947 9.41385 9.22261 9.41385 9.5226C9.41385 9.8226 9.65699 10.0657 9.95698 10.0657H26.7573C27.0573 10.0657 27.3004 9.8226 27.3004 9.5226C27.3004 9.22261 27.0573 8.97947 26.7573 8.97947ZM9.95698 11.8761H26.7573C27.0573 11.8761 27.3004 12.1192 27.3004 12.4192C27.3004 12.7192 27.0573 12.9623 26.7573 12.9623H9.95698C9.65699 12.9623 9.41385 12.7192 9.41385 12.4192C9.41385 12.1192 9.65699 11.8761 9.95698 11.8761ZM26.7574 15.207H24.1504C23.8504 15.207 23.6073 15.4502 23.6073 15.7502C23.6073 16.0502 23.8504 16.2933 24.1504 16.2933H26.7574C27.0573 16.2933 27.3005 16.0502 27.3005 15.7502C27.3005 15.4502 27.0573 15.207 26.7574 15.207ZM9.41385 15.7502C9.41385 15.4502 9.65699 15.207 9.95698 15.207H12.5639C12.8639 15.207 13.1071 15.4502 13.1071 15.7502C13.1071 16.0502 12.8639 16.2933 12.5639 16.2933H9.95698C9.65699 16.2933 9.41385 16.0502 9.41385 15.7502ZM18.3572 21.0002C16.7799 21.0002 15.4967 22.2834 15.4967 23.8607C15.4967 25.438 16.7799 26.7212 18.3572 26.7212C19.9345 26.7212 21.2177 25.438 21.2177 23.8607C21.2177 22.2834 19.9345 21.0002 18.3572 21.0002ZM18.3572 25.6349C17.3788 25.6349 16.583 24.8388 16.583 23.8607C16.583 22.8823 17.3788 22.0865 18.3572 22.0865C19.3356 22.0865 20.1314 22.8823 20.1314 23.8607C20.1314 24.8388 19.3356 25.6349 18.3572 25.6349ZM18.3572 17.5967C17.339 17.5967 16.5107 16.7684 16.5107 15.7502C16.5107 14.732 17.339 13.9037 18.3572 13.9037C19.3754 13.9037 20.2037 14.732 20.2037 15.7502C20.2037 16.7684 19.3754 17.5967 18.3572 17.5967ZM18.3572 16.5107C18.7765 16.5107 19.1177 16.1695 19.1177 15.7502C19.1177 15.3309 18.7765 14.9897 18.3572 14.9897C17.9379 14.9897 17.5967 15.3309 17.5967 15.7502C17.5967 16.1695 17.9379 16.5107 18.3572 16.5107Z" fill="#272931"/>
</svg>
