<svg width="21" height="21" viewBox="0 0 21 21" fill="none" xmlns="http://www.w3.org/2000/svg">
    <path d="M20.3246 18.0634L16.0399 13.7788C17.0724 12.2882 17.589 10.6265 17.589 8.79452C17.589 7.60363 17.3578 6.46468 16.8954 5.37793C16.4333 4.291 15.8087 3.35415 15.0217 2.56716C14.2347 1.78016 13.2979 1.15549 12.2112 0.693363C11.1242 0.231107 9.98532 0 8.79443 0C7.60363 0 6.46468 0.231107 5.37793 0.693363C4.291 1.15549 3.35415 1.78016 2.56716 2.56716C1.78007 3.35415 1.15549 4.29118 0.69332 5.37793C0.231107 6.46481 0 7.60363 0 8.79452C0 9.98532 0.231107 11.1239 0.69332 12.2109C1.15545 13.2977 1.78007 14.2344 2.56716 15.0214C3.35415 15.8087 4.29118 16.4331 5.37793 16.8955C6.46481 17.3576 7.60363 17.5887 8.79443 17.5887C10.6268 17.5887 12.2882 17.0721 13.7789 16.0396L18.0637 20.3117C18.3635 20.6281 18.7377 20.7864 19.1878 20.7864C19.6209 20.7864 19.9958 20.6282 20.312 20.3117C20.6284 19.9954 20.7867 19.6206 20.7867 19.1876C20.7868 18.7465 20.6328 18.3715 20.3246 18.0634ZM12.7482 12.7478C11.6531 13.8431 10.3353 14.3907 8.79443 14.3907C7.25387 14.3907 5.93605 13.843 4.84085 12.7478C3.74566 11.6527 3.19808 10.3351 3.19808 8.79426C3.19808 7.25369 3.74579 5.93566 4.84085 4.84068C5.93583 3.74544 7.25387 3.19791 8.79443 3.19791C10.3351 3.19791 11.6529 3.74566 12.7482 4.84068C13.8435 5.93566 14.391 7.25369 14.391 8.79426C14.391 10.3351 13.8433 11.6527 12.7482 12.7478Z" fill="#272931"/>
</svg>
