<svg width="33" height="33" viewBox="0 0 33 33" fill="none" xmlns="http://www.w3.org/2000/svg">
<path d="M16.5 0C7.38761 0 0 7.38727 0 16.5C0 25.6127 7.38761 33 16.5 33C25.6124 33 33 25.6127 33 16.5C33 7.38727 25.6124 0 16.5 0ZM24.8697 18.2845C25.6387 19.0357 26.4523 19.7426 27.1427 20.5714C27.4486 20.938 27.7369 21.3172 27.9563 21.7435C28.2696 22.3515 27.9867 23.0183 27.4425 23.0544L24.0621 23.0538C23.1891 23.126 22.4944 22.7739 21.9086 22.177C21.4411 21.7013 21.0072 21.1933 20.5569 20.7014C20.3729 20.4995 20.1791 20.3094 19.9482 20.1599C19.4874 19.8601 19.087 19.9519 18.823 20.4333C18.5539 20.9232 18.4925 21.466 18.4668 22.0113C18.43 22.8083 18.1897 23.0166 17.3899 23.0541C15.681 23.1341 14.0595 22.8748 12.5525 22.0133C11.223 21.2534 10.194 20.1808 9.29739 18.9665C7.55135 16.5993 6.21413 14.0011 5.01262 11.3284C4.74221 10.7264 4.94004 10.4044 5.60409 10.3919C6.70736 10.3706 7.81062 10.3733 8.91388 10.3909C9.36288 10.398 9.65997 10.6549 9.83248 11.0785C10.4287 12.5454 11.1596 13.941 12.0755 15.2354C12.3196 15.5801 12.5687 15.9237 12.9235 16.1671C13.3151 16.4359 13.6136 16.3471 13.7982 15.9099C13.9164 15.632 13.9674 15.335 13.993 15.0372C14.0808 14.0173 14.0913 12.9978 13.9393 11.982C13.8448 11.3463 13.4873 10.9357 12.8536 10.8156C12.5309 10.7545 12.5781 10.6349 12.7351 10.4506C13.0076 10.1319 13.2628 9.93477 13.7729 9.93477L17.5921 9.9341C18.1941 10.0523 18.3291 10.3223 18.4108 10.9287L18.4142 15.1729C18.4071 15.4075 18.532 16.103 18.9533 16.2566C19.2909 16.368 19.5137 16.0972 19.7156 15.8835C20.6315 14.9116 21.2841 13.7645 21.8685 12.5771C22.1264 12.0535 22.3488 11.5117 22.5649 10.9688C22.7256 10.5674 22.9754 10.3699 23.4285 10.3767L27.1063 10.3811C27.2146 10.3811 27.3247 10.3821 27.432 10.4007C28.0519 10.5067 28.2217 10.7734 28.0299 11.378C27.7281 12.328 27.1417 13.1193 26.5685 13.9127C25.954 14.7621 25.2988 15.5817 24.6904 16.4348C24.1314 17.2147 24.1756 17.6073 24.8697 18.2845Z" fill="#3D79AF"/>
</svg>
