<svg width="25" height="25" viewBox="0 0 25 25" fill="none" xmlns="http://www.w3.org/2000/svg">
<path d="M10.6514 14.5573L14.609 12.2779L10.6514 9.99854V14.5573Z" fill="white"/>
<path d="M12.1667 0.111328C5.44823 0.111328 0 5.55956 0 12.278C0 18.9964 5.44823 24.4447 12.1667 24.4447C18.8851 24.4447 24.3333 18.9964 24.3333 12.278C24.3333 5.55956 18.8851 0.111328 12.1667 0.111328ZM19.769 12.2904C19.769 12.2904 19.769 14.7579 19.456 15.9477C19.2805 16.599 18.767 17.1125 18.1158 17.2877C16.926 17.6009 12.1667 17.6009 12.1667 17.6009C12.1667 17.6009 7.41982 17.6009 6.21756 17.2753C5.5663 17.1 5.0528 16.5863 4.87736 15.9351C4.56417 14.7579 4.56417 12.278 4.56417 12.278C4.56417 12.278 4.56417 9.81073 4.87736 8.6209C5.05261 7.96965 5.57874 7.44352 6.21756 7.26827C7.40738 6.95508 12.1667 6.95508 12.1667 6.95508C12.1667 6.95508 16.926 6.95508 18.1158 7.28071C18.767 7.45596 19.2805 7.96965 19.456 8.6209C19.7816 9.81073 19.769 12.2904 19.769 12.2904Z" fill="white"/>
</svg>
