<svg width="70" height="43" viewBox="0 0 70 43" fill="none" xmlns="http://www.w3.org/2000/svg">
<path fill-rule="evenodd" clip-rule="evenodd" d="M68.8961 36.0928H69.1154C69.2277 36.0928 69.3492 36.1145 69.3492 36.2555C69.3492 36.4239 69.2153 36.4313 69.0695 36.4313H68.8961V36.0928ZM68.7309 37.0217H68.8961V36.5638H69.0716L69.3616 37.0217H69.5394L69.2347 36.5519C69.3929 36.5358 69.5149 36.4548 69.5149 36.263C69.5149 36.0584 69.3961 35.9592 69.1423 35.9592H68.7307V37.0217H68.7309ZM68.3335 36.4862C68.3335 36.0518 68.6597 35.7155 69.0858 35.7155C69.5077 35.7155 69.8348 36.0516 69.8348 36.4862C69.8348 36.9311 69.5074 37.2673 69.0858 37.2673C68.6597 37.2673 68.3335 36.9311 68.3335 36.4862ZM68.1676 36.4862C68.1676 37.0086 68.5867 37.4011 69.0858 37.4011C69.5833 37.4011 70 37.0086 70 36.4862C70 35.9732 69.583 35.5821 69.0858 35.5821C68.5867 35.5821 68.1676 35.9732 68.1676 36.4862ZM57.9614 35.1346V36.6541H54.1466V37.1369V37.7091V38.3707H54.5834H56.277H56.767C57.6578 38.3707 58.3795 39.0905 58.3795 39.9795V40.5517V40.9978V41.3909C58.3795 42.28 57.6578 42.9998 56.767 42.9998H52.335V41.4806H56.7135V40.9978V40.5517V39.8899H56.277H54.5834H54.093C53.2023 39.8899 52.4804 39.1701 52.4804 38.2811V37.7091V37.1369V36.7435C52.4804 35.8558 53.2023 35.1346 54.093 35.1346H57.9614ZM66.7046 43H62.8362C61.9456 43 61.2236 42.2802 61.2236 41.3912V40.3545V37.7801V36.7435C61.2236 35.8558 61.9456 35.1346 62.8362 35.1346H66.7046V36.6541H62.8899V37.7801V38.4061H66.7046V39.9255H62.8899V40.3543V41.4806H66.7046V43ZM40.5818 43H36.7134C35.8232 43 35.101 42.2802 35.101 41.3912V40.3545V37.7801V36.7435C35.101 35.8558 35.8232 35.1346 36.7134 35.1346H40.5818V36.6541H36.7675V37.7801V38.4061H40.5818V39.9255H36.7675V40.3543V41.4806H40.5818V43ZM18.3288 35.1346H19.1711H22.0017C22.8923 35.1346 23.6143 35.8558 23.6143 36.7435V43H21.948V36.6541H19.1711V43H17.5049V35.1346H18.3288ZM45.2401 38.4063H48.1948V38.1025V36.959V36.6541H45.2401V38.4063ZM49.8608 36.959V38.1025V38.3169C49.8608 39.1401 49.242 39.818 48.4437 39.9139L50.0059 43H48.1304L46.7677 39.9257H45.2401V43H43.5741V35.1346H44.3807H45.2403H48.2489C49.1393 35.1346 49.8612 35.8558 49.8612 36.7435V36.959H49.8608ZM27.4309 35.1346L29.2941 41.6777L31.265 35.1346H33.1641L30.6201 43H28.0042L25.5675 35.1346H27.4309ZM0 36.7435C0 35.8558 0.722167 35.1346 1.61233 35.1346H5.7512V36.6541H1.66647V41.4806H5.75143V42.9998H1.61257C0.7224 42.9998 0.00023365 42.28 0.00023365 41.3909V36.7435H0ZM8.29547 36.7435C8.29547 35.8558 9.01763 35.1346 9.90803 35.1346H13.3478C14.2387 35.1346 14.9606 35.8558 14.9606 36.7435V41.3912C14.9606 42.2802 14.2387 43 13.3478 43H9.90803C9.01763 43 8.29547 42.2802 8.29547 41.3912V36.7435ZM9.96193 36.6543H13.2946V41.4808H9.96193V36.6543ZM33.8893 5.80933L36.032 12.3892H42.9665L37.3564 16.4549L39.4994 23.036L33.8893 18.9691L28.2793 23.036L30.422 16.4549L24.8122 12.3892H31.7464L33.8893 5.80933ZM46.8162 15.1045C46.8162 22.2275 41.0286 28.001 33.8891 28.001C26.7496 28.001 20.9617 22.2272 20.9617 15.1045C20.9617 7.98175 26.7498 2.20687 33.8891 2.20687C41.0284 2.20687 46.8162 7.98175 46.8162 15.1045ZM33.8893 0C25.5281 0 18.75 6.76192 18.75 15.1047C18.75 23.4464 25.5281 30.2083 33.8893 30.2083C42.2506 30.2083 49.0285 23.4464 49.0285 15.1047C49.0282 6.76169 42.2506 0 33.8893 0Z" fill="white"/>
</svg>
