<svg width="83" height="36" viewBox="0 0 83 36" fill="none" xmlns="http://www.w3.org/2000/svg">
<path d="M82.9579 14.7861C82.4798 13.5176 81.3603 12.744 80.2335 12.2179C73.5955 10.0773 67.3515 7.00452 61.1724 3.92937C58.0492 2.48548 54.7266 1.60138 51.2742 0.909466C42.1713 -0.957249 32.7656 0.19113 24.5828 3.06448C16.9094 5.88497 9.95182 10.7956 1.37262 11.329L0.731164 11.8839C0.399624 12.8858 -0.253847 14.0101 0.10412 15.1489L5.76913 25.5227C6.26164 26.2266 6.49227 27.3005 7.4965 27.5071L11.8402 27.6513C13.2216 27.9276 14.9297 27.584 16.0421 28.6123C16.9622 30.0153 15.3526 31.9373 16.7748 33.2226C18.5118 34.8299 20.7677 35.4401 23.223 35.4833C25.3684 35.3344 27.7036 35.0629 28.9361 33.2563C29.5175 32.3866 29.1091 30.6784 30.5578 30.515L34.8942 31.2238C43.1323 32.1319 51.9517 31.9181 59.7381 30.1739C60.2426 30.1162 60.9994 30.0682 61.3069 30.5775C61.7273 31.661 62.2679 32.9271 63.522 33.3259C67.3539 34.0298 70.9023 32.7734 73.7204 30.3661C75.3205 28.9462 75.7385 26.7504 75.5271 24.6026C76.046 23.7305 77.1223 23.435 77.8887 22.7575C80.2671 20.6625 83.4 18.2601 82.9579 14.7861ZM79.2173 12.7656C78.8833 13.705 78.6791 14.7068 78.0953 15.454L76.971 15.0552C77.1776 14.1134 77.574 13.1789 78.0929 12.3044L79.2173 12.7656ZM76.0845 11.7638C76.5842 11.8359 77.0911 11.9704 77.3986 12.1674L76.3415 14.8558C75.837 14.7837 75.4622 14.6492 75.0922 14.3272C75.3613 13.4503 75.628 12.5086 76.0845 11.7638ZM74.309 12.4245L74.4268 12.8041C74.6502 14.445 74.5565 16.081 74.8424 17.6643C75.4718 17.6739 75.9211 17.1814 76.4905 17.0012C76.7956 17.5105 76.8484 18.2673 76.8364 18.8967C75.5007 19.6295 74.1601 20.5496 72.7018 21.1526C72.4351 18.4354 72.363 15.4756 72.2285 12.6383C72.8604 12.4581 73.6171 12.4101 74.309 12.4245ZM70.1456 12.7248L70.2657 13.1668C70.4074 15.5645 70.3666 17.77 70.7654 20.1052C71.1402 20.2421 71.5246 19.8697 71.969 19.7496C72.2117 20.3214 72.1348 20.9508 72.1252 21.5154C70.9768 22.2506 69.7708 22.7959 68.5671 23.2139C68.2476 19.997 68.1275 16.278 68.0626 12.9386C68.6945 12.7608 69.4537 12.7104 70.1456 12.7248ZM62.3832 13.3999C63.0847 13.0323 64.089 13.1789 64.9707 13.0683C66.2992 12.7152 65.8307 14.4089 66.2584 15.048C66.8374 17.83 67.5437 20.6145 68.0578 23.4566C67.4188 23.8266 66.7869 24.1269 66.0277 24.1773C65.85 23.7329 65.7971 23.1635 65.5521 22.719C65.1124 22.5244 64.6031 22.892 64.161 22.9449C63.7094 23.5022 63.9448 24.3936 63.7454 25.0807C62.9814 25.3185 62.2847 25.6837 61.5279 25.7317L61.4703 25.417L62.3832 13.3999ZM54.8154 13.8275C55.4521 13.5248 56.3314 13.729 57.0257 13.6161L57.326 14.3152C57.6119 16.0834 57.9531 17.8565 58.3639 19.6271C58.6161 19.5694 58.5585 19.2523 58.5633 19.0024L58.9044 14.0317C58.7843 13.902 58.9741 13.6545 58.9765 13.5272C59.6108 13.3518 60.3675 13.3638 61.057 13.3783C60.9778 17.7243 60.7135 21.9382 60.3844 26.0945C59.4978 26.39 58.6089 26.6903 57.7272 26.8008C57.1867 25.2801 56.9608 23.7641 56.6101 22.2434C56.3578 22.2386 56.4155 22.5557 56.4131 22.8079L55.9542 27.2092C55.1278 27.572 54.1187 27.4903 53.2346 27.6633L52.992 27.0939L50.2724 14.1903L50.4646 14.0678L52.8598 13.9236L53.1049 14.2431C53.3187 16.4534 53.7199 18.6012 54.1187 20.7514C54.5416 18.4835 54.5824 16.2156 54.8154 13.8275ZM52.1607 7.41294C51.4136 7.14867 50.479 6.5 49.6502 7.05257C49.3907 7.30002 49.1937 7.67481 49.4411 7.93187C50.6856 8.77514 52.8382 8.11927 53.434 9.95955C53.7367 10.7211 53.5926 11.7254 53.0136 12.2827C52.0502 13.335 50.5967 13.6257 49.1528 13.2822C48.5258 13.0828 47.7714 12.941 47.2164 12.4893C47.4159 11.8647 47.7378 11.4275 48.1246 10.995C48.8814 11.1368 49.6261 11.6533 50.5727 11.4803C50.9523 11.4875 51.3367 11.3049 51.4664 10.9301C51.4928 9.54392 49.7823 10.207 48.903 9.87547C48.0861 9.73372 47.4086 9.0298 47.1684 8.26822C46.9954 7.44657 47.1348 6.62733 47.7114 6.07236C49.1168 4.96483 51.452 5.00807 52.9415 5.98107C52.9968 6.48559 52.5451 7.04536 52.1607 7.41294ZM38.743 27.769L38.5532 27.8291L36.415 27.6008L36.2396 26.969L35.6342 15.4276L35.7014 15.0528C36.3357 14.9375 37.0901 15.0143 37.7844 14.9014C38.1255 16.7369 38.0943 18.5604 38.3105 20.4535C38.7454 20.8427 39.5069 20.5424 40.0715 20.552L40.2037 20.3646L39.9274 14.8798C40.5592 14.6396 41.3833 14.5939 42.1376 14.6083L42.2554 14.923L43.089 27.9156C43.1515 28.0429 43.0193 28.1678 42.8968 28.1654C42.14 28.0886 41.316 28.324 40.7562 27.8747L40.4055 23.0818C39.8433 22.8199 39.1442 23.1203 38.5772 23.1106L38.4499 23.298L38.743 27.769ZM33.5897 27.1684L33.5224 27.3582L31.5115 27.0675C31.192 23.9131 30.9974 20.7562 30.6803 17.6018L30.5578 17.412L28.7295 17.4408C28.7415 16.8114 28.4388 16.0498 28.7655 15.4876C30.7211 15.3363 32.8041 15.2474 34.7573 15.1561L34.9423 15.3483L34.9735 17.0492C34.4065 17.1669 33.7747 17.2174 33.1452 17.2054L32.9506 17.4528L33.5897 27.1684ZM34.7356 12.8257L34.5266 13.9549C33.8948 14.0702 33.138 14.1182 32.5734 14.0461C33.0611 11.5332 33.6089 9.14992 34.2191 6.76668C35.1056 6.46877 36.3021 6.49039 37.2486 6.50961L37.9718 8.3499L39.6391 13.5464C39.0673 13.7867 38.3754 13.6497 37.6835 13.7627C37.376 13.3182 37.5177 12.4365 36.7633 12.4245C36.0666 12.4701 35.1873 12.2659 34.7356 12.8257ZM42.2193 10.2551C42.0944 10.1902 42.092 10.3175 42.0271 10.3776L42.1617 13.3422C41.6523 13.6473 40.9652 13.4455 40.3334 13.5608L40.2133 13.1789C40.0643 11.0359 39.8577 8.6382 39.9009 6.43273C40.5328 6.25495 41.2896 6.2069 41.9815 6.15645L42.2337 6.28618L44.0716 9.15473L44.3263 9.09467C44.2134 8.27302 44.2975 7.14146 44.1893 6.13002C44.7611 5.88978 45.5804 5.96665 46.2098 5.97626C46.4164 8.37633 46.5606 10.774 46.6447 13.1044C45.8831 13.3422 45.0062 13.2029 44.2494 13.2485C43.507 12.2323 43.0169 11.2785 42.2193 10.2551ZM48.3192 14.2119L48.509 14.2792C48.6219 14.851 48.6099 15.4756 48.6003 16.045L46.3251 16.3813L46.1305 16.6288L46.4453 20.0379C47.0074 20.2998 47.7666 20.0619 48.3336 20.1965C48.4441 20.8932 48.5618 21.6499 48.4825 22.277C47.9732 22.5869 47.3486 22.3851 46.7768 22.5629L46.6471 22.7503L46.8369 26.032L47.1492 26.2867L49.2922 26.3275C49.5372 26.8369 49.5252 27.4663 49.5132 28.0333C47.9949 28.3216 46.2939 28.2904 44.6554 28.3216L44.5401 27.8795L43.6848 15.9561L43.6488 14.5699C45.1671 14.2816 46.7408 14.308 48.3192 14.2119ZM27.0261 3.92937C27.9895 6.33904 28.5085 8.9313 29.3469 11.341L29.6664 11.1584L31.0599 3.81404L31.2545 3.56419L50.9331 2.35335C51.5649 2.49029 52.7085 1.82 52.6917 2.82664C52.5547 3.26629 52.9824 3.9654 52.413 4.20565L35.0672 5.27234L33.2389 5.4285L32.9794 5.80088L31.377 14.1519L31.0599 14.272L28.1577 14.4065L27.7901 13.8948C26.7787 10.601 25.6423 7.36729 24.6333 4.07351C25.3853 3.9606 26.2718 3.85008 27.0261 3.92937ZM26.3679 15.7591L26.4279 15.9489L26.4616 17.5225C25.7648 17.7003 25.0729 17.6883 24.3162 17.7988C23.9918 18.2312 24.2969 18.8054 24.2873 19.3748C24.8471 19.6967 25.4189 19.334 26.1108 19.4685C26.291 19.9754 26.2141 20.7322 26.2646 21.3641C25.6952 21.5394 25.0657 21.4674 24.4315 21.6427C24.2177 23.0266 24.5732 24.2927 24.4843 25.614C23.79 25.6621 22.9756 25.3954 22.2861 25.3185C21.9641 22.2289 21.7047 19.2619 21.6374 16.0474C23.2158 15.8264 24.7294 15.6678 26.3679 15.7591ZM16.2102 16.3909C17.6637 16.1627 19.2398 16.1315 20.7533 16.033L20.8758 16.2852L21.0368 17.8012C20.9695 17.9237 20.8422 17.9838 20.6524 18.0486L18.8241 18.2C18.5647 18.5724 18.7424 19.1418 18.8001 19.5862C19.2325 19.973 19.9941 19.7352 20.5611 19.7448L20.7461 19.9394L20.8398 21.7028C20.3305 22.0704 19.4536 21.7388 18.9443 22.1064C18.8001 22.9857 19.0379 23.8746 18.9563 24.8188C18.2619 24.8068 17.4475 24.665 16.7556 24.5257L16.5706 24.2686L16.1454 16.5135L16.2102 16.3909ZM13.063 16.3333C13.815 16.5351 14.5021 16.9267 14.9321 17.5033C15.9724 19.1586 15.9916 21.4289 15.2661 23.1779C14.7447 24.1125 13.7934 24.5377 12.7819 24.6458C11.648 24.6867 10.6485 24.1005 10.1008 23.0818C9.37283 21.4938 9.16621 19.1586 10.0767 17.6018C10.7903 16.6696 11.8738 15.8696 13.063 16.3333ZM8.48392 15.1753C9.03889 15.8816 9.1494 16.7633 9.6395 17.5297C9.38004 17.9021 8.81065 18.015 8.43106 18.2C8.06349 17.5009 7.51332 16.672 7.27548 15.7855C7.53494 15.4756 7.9794 15.233 8.48392 15.1753ZM6.64843 18.9856C6.28806 18.1616 5.73309 17.46 5.49765 16.5687C5.88205 16.2612 6.3241 16.1459 6.76615 16.0906C7.19379 16.8546 7.61903 17.6811 7.85687 18.5051C7.47488 18.7478 7.02562 19.1201 6.64843 18.9856ZM24.8952 34.1283C22.8675 34.592 20.2872 34.4815 18.9322 32.8815C18.8145 32.3794 19.1364 32.067 19.5184 31.822C21.4812 31.291 23.742 31.7115 25.294 32.8118L25.539 33.1938C25.5342 33.6382 25.2123 33.9458 24.8952 34.1283ZM28.0039 32.8622C27.9391 33.0496 27.8069 33.2346 27.6171 33.2947L27.2424 33.225C24.9624 30.5391 20.8734 30.1499 17.5796 31.094C17.2673 31.0244 17.2721 30.7072 17.2769 30.4574C17.2841 29.9529 17.6109 29.4556 18.1178 29.2105C21.5918 28.7108 25.2339 29.2201 27.8406 31.4712C28.2754 31.7355 28.0736 32.4202 28.0039 32.8622ZM71.9618 30.2075C70.7414 31.6346 69.2134 32.3625 67.3875 32.3938C67.0704 32.2616 66.6932 32.2544 66.5154 31.8724C66.4049 31.0508 67.044 30.5583 67.5557 30.0634C68.6464 29.1384 70.0375 28.6627 71.5438 28.9414L71.9162 29.1961C72.1684 29.458 72.0964 29.8327 71.9618 30.2075ZM73.7637 28.2904C73.5667 28.6003 73.1294 28.4657 72.8796 28.4009C70.6261 27.536 68.0891 28.497 66.3593 30.1042C65.343 30.4646 64.9803 33.1674 63.558 31.625C63.2505 31.3727 63.3178 30.9307 63.4499 30.6159C65.6962 28.2663 68.435 26.6783 71.5894 26.5462C72.4087 26.623 73.4201 26.3924 73.8478 27.154C73.903 27.536 74.0207 28.0405 73.7637 28.2904ZM81.908 17.227C79.705 20.4607 75.7625 22.4043 72.4543 24.2326C62.8445 29.4748 51.6514 31.7235 39.949 30.8129C32.0785 30.479 24.9408 28.1438 17.1424 27.4303L8.39983 26.6375C8.2773 26.5101 8.02505 26.5053 8.08991 26.2555C8.22205 25.8783 8.23166 25.4362 8.61365 25.256C12.0804 25.3209 15.2829 25.823 18.5478 26.2579L33.753 28.4297C44.2494 29.8832 55.3488 29.2682 64.6703 25.8494C70.8207 23.8194 76.4256 20.3358 81.7351 16.2708C82.045 16.4726 81.9729 16.9123 81.908 17.227Z" fill="#D04C44"/>
</svg>
