<svg width="25" height="25" viewBox="0 0 25 25" fill="none" xmlns="http://www.w3.org/2000/svg">
<path d="M12.1667 0.666504C5.45799 0.666504 0 6.1245 0 12.8332C0 19.5414 5.45799 24.9998 12.1667 24.9998C18.8748 24.9998 24.3333 19.5414 24.3333 12.8332C24.3333 6.1245 18.8758 0.666504 12.1667 0.666504ZM15.1924 13.2615H13.213C13.213 16.424 13.213 20.3167 13.213 20.3167H10.2799C10.2799 20.3167 10.2799 16.4617 10.2799 13.2615H8.8856V10.768H10.2799V9.15514C10.2799 8.00002 10.8288 6.19507 13.2399 6.19507L15.4134 6.2034V8.62389C15.4134 8.62389 14.0927 8.62389 13.8359 8.62389C13.5791 8.62389 13.214 8.75229 13.214 9.30314V10.7685H15.4487L15.1924 13.2615Z" fill="white"/>
</svg>
