<svg width="25" height="28" viewBox="0 0 25 28" fill="none" xmlns="http://www.w3.org/2000/svg">
<path d="M15.3071 20.2599C17.5952 16.465 20.4871 11.1299 20.4871 8.38762C20.4871 3.76168 16.7254 0 12.0994 0C7.47351 0 3.71182 3.76168 3.71182 8.38762C3.71182 11.1299 6.60372 16.465 8.89176 20.2599C6.17714 20.4649 0 21.2017 0 23.6449C0 26.0493 6.27132 27.1462 12.105 27.1462C17.9331 27.1462 24.21 26.0493 24.21 23.6449C24.2044 21.2017 18.0217 20.4649 15.3071 20.2599ZM4.86969 8.38762C4.86969 4.39879 8.11615 1.15233 12.0994 1.15233C16.0883 1.15233 19.3347 4.39879 19.3347 8.38762C19.3347 11.8723 13.7836 20.6145 12.0994 23.1851C10.4153 20.6145 4.86969 11.8723 4.86969 8.38762ZM12.0994 25.9883C5.01373 25.9883 1.15233 24.4371 1.15233 23.6393C1.15233 23.0244 3.70074 21.7003 9.57318 21.3624C10.6757 23.1407 11.5122 24.3983 11.623 24.5479C11.7726 24.7473 12.2102 24.9856 12.5814 24.5479C12.6978 24.4094 13.5288 23.1407 14.6312 21.3624C20.5037 21.7003 23.0521 23.0189 23.0521 23.6393C23.0466 24.4426 19.1851 25.9883 12.0994 25.9883Z" fill="#272931"/>
<path d="M15.7503 8.3877C15.7503 6.37113 14.1159 4.73682 12.0994 4.73682C10.0828 4.73682 8.44849 6.37113 8.44849 8.3877C8.44849 10.4043 10.0828 12.0386 12.0994 12.0386C14.1159 12.0386 15.7503 10.4043 15.7503 8.3877ZM9.60081 8.3877C9.60081 7.00823 10.7199 5.88914 12.0994 5.88914C13.4788 5.88914 14.5979 7.00823 14.5979 8.3877C14.5979 9.76717 13.4788 10.8863 12.0994 10.8863C10.7199 10.8863 9.60081 9.76717 9.60081 8.3877Z" fill="#272931"/>
</svg>
