<svg width="32" height="35" viewBox="0 0 32 35" fill="none" xmlns="http://www.w3.org/2000/svg">
<path d="M16.0013 3.49964C15.6858 3.49964 15.43 3.76084 15.43 4.08298V5.99621L12.4274 7.01763L6.74481 8.17804C6.6759 8.192 6.60978 8.21877 6.55007 8.25722L0.264854 12.3406C-0.00158757 12.5135 -0.0799854 12.8744 0.0893651 13.1464L4.08905 19.5631C4.18 19.7081 4.32871 19.8047 4.49583 19.8272C4.66322 19.8497 4.83146 19.7958 4.95589 19.6796L6.28782 18.4472V34.4167C6.28782 34.7388 6.54366 35 6.8592 35H25.1435C25.459 35 25.7149 34.7388 25.7149 34.4167V18.5719L27.0674 19.7013C27.1899 19.8052 27.3498 19.8511 27.5074 19.8272C27.6648 19.8055 27.8062 19.7172 27.8969 19.5839L31.8966 13.7505C32.0754 13.4902 32.0165 13.1316 31.7646 12.9445L25.4794 8.27773C25.4127 8.22817 25.3363 8.19428 25.2556 8.17804L19.5753 7.01763L16.5727 5.99621V4.58344C17.72 4.27809 18.447 3.12708 18.2459 1.9342C18.0447 0.741596 16.9826 -0.0952466 15.8016 0.00871781C14.6203 0.112682 13.7141 1.1227 13.7158 2.33296C13.7158 2.65511 13.9716 2.9163 14.2872 2.9163C14.6027 2.9163 14.8586 2.65511 14.8586 2.33296C14.8586 1.68867 15.3703 1.16628 16.0013 1.16628C16.6324 1.16628 17.1441 1.68867 17.1441 2.33296C17.1441 2.97726 16.6324 3.49964 16.0013 3.49964ZM16.0013 7.03101L18.8184 7.99119C18.6256 9.42875 17.4225 10.5003 16.0013 10.5003C14.5801 10.5003 13.3774 9.42875 13.1843 7.99119L16.0013 7.03101ZM30.6391 13.5511L27.3146 18.4004L25.5059 16.8891C25.3349 16.7458 25.0983 16.7162 24.8985 16.8131C24.699 16.9096 24.5718 17.1153 24.5721 17.3411V33.8333H7.43059V17.1281C7.43059 16.8971 7.29723 16.688 7.09049 16.5946C6.88347 16.5012 6.64214 16.541 6.47475 16.6966L4.6914 18.352L1.36242 13.0122L7.07626 9.30029L12.0588 8.28286C12.3914 10.2397 14.0545 11.6684 15.9997 11.6684C17.9448 11.6684 19.6079 10.2397 19.9405 8.28286L24.9069 9.29744L30.6391 13.5511Z" fill="#272931"/>
</svg>
