<svg width="25" height="25" viewBox="0 0 25 25" fill="none" xmlns="http://www.w3.org/2000/svg">
<path d="M12.1667 0.555664C5.44743 0.555664 0 6.00285 0 12.7223C0 19.4418 5.44743 24.889 12.1667 24.889C18.8859 24.889 24.3333 19.4418 24.3333 12.7223C24.3333 6.00285 18.8859 0.555664 12.1667 0.555664ZM18.3382 14.0382C18.9053 14.5921 19.5053 15.1133 20.0143 15.7245C20.2399 15.9948 20.4524 16.2744 20.6143 16.5888C20.8453 17.0371 20.6367 17.5288 20.2354 17.5554L17.7428 17.5549C17.0991 17.6082 16.5867 17.3485 16.1548 16.9084C15.8101 16.5577 15.4902 16.183 15.1581 15.8203C15.0224 15.6715 14.8796 15.5313 14.7093 15.421C14.3695 15.2 14.0743 15.2677 13.8796 15.6227C13.6812 15.9839 13.6359 16.3842 13.617 16.7862C13.5898 17.3739 13.4126 17.5275 12.8229 17.5551C11.5628 17.6141 10.3671 17.423 9.25588 16.7877C8.27557 16.2273 7.51682 15.4365 6.85565 14.541C5.56816 12.7955 4.58213 10.8797 3.69618 8.90891C3.49678 8.46506 3.64266 8.22757 4.13231 8.21836C4.94583 8.20268 5.75935 8.20467 6.57286 8.21761C6.90395 8.22284 7.12301 8.41228 7.25021 8.72469C7.68983 9.80631 8.22877 10.8354 8.90413 11.7898C9.08411 12.044 9.26783 12.2974 9.52946 12.4769C9.81822 12.675 10.0383 12.6096 10.1744 12.2872C10.2616 12.0823 10.2992 11.8633 10.3181 11.6437C10.3828 10.8917 10.3905 10.1399 10.2785 9.39084C10.2088 8.9221 9.94518 8.61939 9.47793 8.53077C9.23995 8.48572 9.2748 8.39759 9.39055 8.26168C9.59144 8.02668 9.77964 7.8813 10.1558 7.8813L12.972 7.88081C13.4158 7.96793 13.5154 8.16708 13.5756 8.61417L13.5781 11.7438C13.5729 11.9168 13.665 12.4296 13.9757 12.5428C14.2246 12.625 14.3889 12.4254 14.5378 12.2678C15.2131 11.5511 15.6943 10.7052 16.1252 9.82971C16.3154 9.44362 16.4795 9.04408 16.6388 8.64379C16.7573 8.34781 16.9415 8.20218 17.2755 8.20716L19.9874 8.2104C20.0673 8.2104 20.1485 8.21114 20.2277 8.22483C20.6847 8.303 20.8099 8.49966 20.6685 8.9455C20.446 9.646 20.0136 10.2295 19.5909 10.8145C19.1378 11.4408 18.6546 12.0452 18.2061 12.6743C17.7938 13.2493 17.8264 13.5388 18.3382 14.0382Z" fill="white"/>
</svg>
